# xmcd CD database file
#
# Track frame offsets:
#	150
#	22959
#	43818
#
# Disc length: 979 seconds
#
# Revision: 0
# Processed by: cddbd v1.5.1PL0 Copyright (c) Steve Scherf et al.
# Submitted via: CDex 1.51
#
DISCID=1c03d103
DTITLE=double face - 望遠抄
DYEAR=2004
DGENRE=Rock
TTITLE0=山なみ遠に春は来て
TTITLE1=クラシノトモシビ
TTITLE2=夏の断章
EXTD=YEAR: 2004
EXTT0=
EXTT1=
EXTT2=
PLAYORDER=
